<svg width="116" height="72" viewBox="0 0 116 72" fill="none" xmlns="http://www.w3.org/2000/svg">
<path d="M54.4 1.3V71H45.3V39.4H9.8V71H0.700001V1.3H9.8V31.9H45.3V1.3H54.4ZM92.0383 71.7C87.4383 71.7 83.3049 70.9 79.6383 69.3C76.0383 67.6333 73.2049 65.3667 71.1383 62.5C69.0716 59.5667 68.0049 56.2 67.9383 52.4H77.6383C77.9716 55.6667 79.3049 58.4333 81.6383 60.7C84.0383 62.9 87.5049 64 92.0383 64C96.3716 64 99.7716 62.9333 102.238 60.8C104.772 58.6 106.038 55.8 106.038 52.4C106.038 49.7333 105.305 47.5667 103.838 45.9C102.372 44.2333 100.538 42.9667 98.3383 42.1C96.1383 41.2333 93.1716 40.3 89.4383 39.3C84.8383 38.1 81.1383 36.9 78.3383 35.7C75.6049 34.5 73.2383 32.6333 71.2383 30.1C69.3049 27.5 68.3383 24.0333 68.3383 19.7C68.3383 15.9 69.3049 12.5333 71.2383 9.6C73.1716 6.66666 75.8716 4.4 79.3383 2.8C82.8716 1.2 86.9049 0.399997 91.4383 0.399997C97.9716 0.399997 103.305 2.03333 107.438 5.3C111.638 8.56666 114.005 12.9 114.538 18.3H104.538C104.205 15.6333 102.805 13.3 100.338 11.3C97.8716 9.23333 94.6049 8.2 90.5383 8.2C86.7383 8.2 83.6383 9.2 81.2383 11.2C78.8383 13.1333 77.6383 15.8667 77.6383 19.4C77.6383 21.9333 78.3383 24 79.7383 25.6C81.2049 27.2 82.9716 28.4333 85.0383 29.3C87.1716 30.1 90.1383 31.0333 93.9383 32.1C98.5383 33.3667 102.238 34.6333 105.038 35.9C107.838 37.1 110.238 39 112.238 41.6C114.238 44.1333 115.238 47.6 115.238 52C115.238 55.4 114.338 58.6 112.538 61.6C110.738 64.6 108.072 67.0333 104.538 68.9C101.005 70.7667 96.8383 71.7 92.0383 71.7Z" fill="url(#paint0_linear_146_2)"/>
<defs>
<linearGradient id="paint0_linear_146_2" x1="57" y1="-39" x2="57" y2="111" gradientUnits="userSpaceOnUse">
<stop offset="0.02" stop-color="#00CEA8"/>
<stop offset="0.98" stop-color="#BF61FF"/>
</linearGradient>
</defs>
</svg>
